<svg width="113" height="99" viewBox="0 0 113 99" fill="none" xmlns="http://www.w3.org/2000/svg">
<path d="M2.02188 0.42086C-0.375772 1.6318 -0.690616 4.7318 1.34376 6.71774C1.90079 7.25055 7.32579 12.0216 13.3805 17.3013C19.4352 22.5568 24.4242 26.9646 24.4727 27.0857C24.5211 27.2068 23.5766 27.9818 22.4141 28.8295C16.7227 32.9466 8.46407 40.6966 3.7172 46.4365C0.278134 50.6021 0.0117278 51.0623 0.0117278 52.5638C0.0117278 54.0169 0.399228 54.6224 3.81407 58.7638C9.94142 66.1263 17.9578 73.3919 25.6109 78.5021C36.1703 85.574 47.7227 89.2552 57.7008 88.7951C65.9109 88.3834 74.7508 85.574 82.525 80.8755C83.6633 80.1732 84.7289 79.6646 84.8984 79.7373C85.068 79.8099 89.7664 83.8544 95.3609 88.7466C100.955 93.6388 105.872 97.8287 106.259 98.0951C107.301 98.749 109.214 98.7248 110.255 97.9982C111.951 96.8841 112.508 94.6076 111.563 92.9607C111.297 92.5005 103.014 85.1138 93.157 76.5162C37.7445 28.2482 21.3242 13.9107 9.7961 3.85992C7.88282 2.18883 5.99376 0.638829 5.55782 0.396642C4.56485 -0.136171 3.08751 -0.136171 2.02188 0.42086ZM35.468 36.531L39.7305 40.2365L38.907 41.7623C36.5336 46.0732 35.8797 50.9896 36.9938 55.9302C37.6234 58.5943 39.5609 62.1787 41.5469 64.3099C45.6156 68.6693 50.193 70.7037 56.0055 70.7037C60.3406 70.7037 64.1914 69.4685 67.6063 66.9498L69.1078 65.8357L73.8063 69.9044C76.3734 72.1568 78.5047 74.0459 78.5047 74.1427C78.5289 74.3849 74.7508 76.3709 71.9172 77.5818C68.8656 78.8896 65.5477 79.9068 62.3024 80.5365C58.8633 81.1904 52.9055 81.1419 49.2484 80.4154C36.3399 77.8724 22.4625 68.5482 10.0141 54.0654L8.70626 52.5396L10.4984 50.4326C13.0414 47.4294 18.6117 41.9318 21.857 39.1951C25.6109 36.0224 30.6 32.438 30.9391 32.6318C31.0844 32.7287 33.143 34.4724 35.468 36.531ZM54.625 53.2177C59.2508 57.2623 62.9805 60.6771 62.8836 60.7982C62.6656 61.1857 60.5586 62.1544 59.057 62.5904C58.0156 62.9052 56.9984 62.9779 55.3031 62.9052C53.2445 62.8326 52.7602 62.7115 51.1617 61.9607C45.2281 59.1271 42.7094 52.7818 45.1313 46.7998C45.4461 45.9763 45.7367 45.5888 45.9305 45.6857C46.0758 45.7826 49.975 49.1732 54.625 53.2177Z" fill="#626262"/>
<path d="M51.4039 16.4779C50.4109 16.599 48.4492 16.9139 47.0445 17.2045C40.8445 18.4639 39.2945 19.3842 39.1008 21.9998C38.9797 23.7678 39.5851 24.9303 41.0141 25.6568C42.225 26.2865 42.9758 26.2623 45.4703 25.5358C49.2484 24.4459 51.7187 24.1068 56.0055 24.1068C59.2023 24.1068 60.5586 24.2037 62.7383 24.6397C71.5781 26.4076 80.1031 30.8639 89.4273 38.5412C92.7937 41.3264 98.7758 47.2115 101.512 50.4326L103.28 52.5397L101.512 54.6467C100.52 55.8334 97.9039 58.5943 95.6516 60.8225C93.4234 63.0506 91.4859 65.1576 91.3648 65.4967C90.7109 67.2404 91.3648 69.299 92.8664 70.2193C93.9562 70.8732 95.8211 70.8732 96.9352 70.1951C98.9453 68.9842 109.214 57.9889 111.37 54.7193C112.338 53.2904 112.266 51.6436 111.2 50.1178C107.979 45.5162 98.7758 35.9983 93.3023 31.6147C78.9891 20.1592 64.6516 14.9764 51.4039 16.4779Z" fill="#626262"/>
</svg>
