<svg width="2137" height="699" viewBox="0 0 2137 699" fill="none" xmlns="http://www.w3.org/2000/svg">
<path d="M772.295 461.837C746.93 461.837 725.111 456.463 706.839 445.714C688.675 434.859 674.703 419.812 664.922 400.572C655.249 381.333 650.412 359.192 650.412 334.149C650.412 308.784 655.302 286.535 665.083 267.403C674.971 248.164 688.998 233.171 707.162 222.423C725.326 211.567 746.93 206.139 771.973 206.139C793.577 206.139 812.493 210.062 828.723 217.908C844.953 225.754 857.797 236.771 867.255 250.959C876.713 265.146 881.926 281.806 882.893 300.938H818.082C816.255 288.577 811.419 278.635 803.572 271.112C795.834 263.48 785.677 259.665 773.102 259.665C762.461 259.665 753.164 262.567 745.21 268.371C737.364 274.067 731.238 282.397 726.831 293.36C722.424 304.323 720.221 317.597 720.221 333.182C720.221 348.982 722.371 362.417 726.67 373.487C731.076 384.558 737.257 392.995 745.21 398.799C753.164 404.603 762.461 407.505 773.102 407.505C780.948 407.505 787.988 405.893 794.222 402.668C800.563 399.444 805.776 394.768 809.86 388.642C814.052 382.408 816.793 374.938 818.082 366.232H882.893C881.819 385.149 876.66 401.808 867.416 416.211C858.28 430.506 845.651 441.684 829.529 449.745C813.407 457.806 794.329 461.837 772.295 461.837ZM1049.5 209.364V260.955H900.375V209.364H1049.5ZM934.231 150.034H1002.91V380.903C1002.91 387.245 1003.88 392.189 1005.81 395.736C1007.75 399.175 1010.44 401.594 1013.87 402.991C1017.42 404.388 1021.51 405.087 1026.13 405.087C1029.35 405.087 1032.58 404.818 1035.8 404.281C1039.03 403.636 1041.5 403.152 1043.22 402.83L1054.02 453.937C1050.58 455.012 1045.74 456.248 1039.51 457.645C1033.28 459.15 1025.7 460.063 1016.78 460.386C1000.22 461.031 985.715 458.827 973.247 453.776C960.887 448.724 951.267 440.878 944.388 430.237C937.509 419.597 934.124 406.161 934.231 389.932V150.034ZM1243.97 351.561V209.364H1312.65V457H1246.71V412.019H1244.13C1238.54 426.529 1229.24 438.191 1216.24 447.004C1203.34 455.818 1187.59 460.224 1169 460.224C1152.45 460.224 1137.88 456.463 1125.31 448.939C1112.73 441.415 1102.9 430.721 1095.8 416.856C1088.82 402.991 1085.27 386.385 1085.16 367.038V209.364H1153.84V354.786C1153.95 369.403 1157.87 380.957 1165.61 389.448C1173.35 397.939 1183.72 402.185 1196.73 402.185C1205.01 402.185 1212.74 400.304 1219.94 396.542C1227.15 392.673 1232.95 386.976 1237.36 379.452C1241.87 371.929 1244.07 362.632 1243.97 351.561ZM1358.5 457V209.364H1425.09V252.571H1427.67C1432.18 237.201 1439.76 225.593 1450.4 217.747C1461.04 209.794 1473.29 205.817 1487.16 205.817C1490.6 205.817 1494.31 206.032 1498.28 206.462C1502.26 206.892 1505.75 207.483 1508.76 208.235V269.177C1505.54 268.21 1501.08 267.35 1495.38 266.597C1489.68 265.845 1484.47 265.469 1479.74 265.469C1469.64 265.469 1460.61 267.672 1452.66 272.079C1444.81 276.378 1438.58 282.397 1433.96 290.136C1429.44 297.874 1427.18 306.795 1427.18 316.898V457H1358.5Z" fill="#2F2F2F"/>
<path d="M1535.19 457V209.364H1603.87V457H1535.19ZM1569.69 177.442C1559.48 177.442 1550.72 174.056 1543.41 167.285C1536.21 160.406 1532.61 152.184 1532.61 142.618C1532.61 133.16 1536.21 125.045 1543.41 118.273C1550.72 111.395 1559.48 107.955 1569.69 107.955C1579.9 107.955 1588.61 111.395 1595.81 118.273C1603.12 125.045 1606.77 133.16 1606.77 142.618C1606.77 152.184 1603.12 160.406 1595.81 167.285C1588.61 174.056 1579.9 177.442 1569.69 177.442ZM1648.52 457V416.05L1769.76 265.952V264.179H1652.71V209.364H1852.46V254.022L1738.64 400.411V402.185H1856.66V457H1648.52ZM2005.86 461.837C1980.38 461.837 1958.46 456.678 1940.08 446.359C1921.8 435.934 1907.72 421.209 1897.84 402.185C1887.95 383.053 1883 360.428 1883 334.31C1883 308.837 1887.95 286.481 1897.84 267.242C1907.72 248.003 1921.64 233.009 1939.59 222.261C1957.65 211.513 1978.82 206.139 2003.11 206.139C2019.45 206.139 2034.66 208.772 2048.74 214.039C2062.93 219.198 2075.29 226.991 2085.82 237.416C2096.46 247.842 2104.74 260.955 2110.65 276.754C2116.56 292.446 2119.52 310.826 2119.52 331.892V350.755H1910.41V308.192H2054.87C2054.87 298.304 2052.72 289.545 2048.42 281.913C2044.12 274.282 2038.15 268.317 2030.52 264.018C2023 259.611 2014.24 257.408 2004.24 257.408C1993.82 257.408 1984.57 259.826 1976.51 264.663C1968.56 269.392 1962.33 275.787 1957.81 283.848C1953.3 291.802 1950.99 300.669 1950.88 310.45V350.916C1950.88 363.169 1953.14 373.756 1957.65 382.677C1962.27 391.598 1968.77 398.477 1977.16 403.313C1985.54 408.15 1995.48 410.568 2006.98 410.568C2014.61 410.568 2021.6 409.493 2027.94 407.344C2034.28 405.194 2039.71 401.97 2044.23 397.67C2048.74 393.371 2052.18 388.105 2054.54 381.871L2118.07 386.062C2114.84 401.325 2108.23 414.652 2098.24 426.045C2088.35 437.331 2075.56 446.144 2059.86 452.486C2044.28 458.72 2026.28 461.837 2005.86 461.837Z" fill="#5A5A5A"/>
<path d="M578.4 151.378C564.933 153.778 551.2 162.044 543.467 172.578C540.933 175.911 498 266.578 447.867 374.044L356.667 569.378L355.867 620.711C355.333 648.978 354.933 672.178 354.8 672.311C354.8 672.444 325.867 672.844 290.533 672.978L226.4 673.378L223.2 677.111C218.8 682.178 218.8 689.911 223.2 694.978L226.4 698.711H375.333H524.267L527.467 694.978C531.867 689.911 531.867 682.178 527.467 677.111L524.267 673.378L458.4 672.711L392.667 672.044L424.667 644.444L456.8 616.844L548.267 420.311C602.8 303.511 640.533 220.978 641.467 216.711C644.667 202.044 640.533 184.978 630.8 172.178C619.2 156.844 597.333 148.178 578.4 151.378ZM573.733 237.644C587.467 244.044 598.4 249.911 598.133 250.711C593.6 260.978 435.6 598.978 434.933 599.511C434.4 600.044 422.533 594.978 408.4 588.444C386.933 578.311 382.933 576.044 383.867 574.178C384.533 572.978 420.267 496.444 463.333 404.044C548.267 221.778 546.267 226.044 547.733 226.044C548.267 226.044 559.867 231.244 573.733 237.644Z" fill="#0F4F7C"/>
<circle cx="663" cy="59" r="59" fill="#0F4F7C"/>
<path d="M65.262 682.348C21.754 682.348 0 659.104 0 612.616V260.38C0 179.324 17.88 118.83 53.64 78.898C89.4 38.966 139.464 19 203.832 19C269.392 19 320.946 39.86 358.494 81.58C396.638 123.3 415.71 184.39 415.71 264.85C415.71 318.49 407.962 361.402 392.466 393.586C376.97 425.174 355.514 448.12 328.098 462.424C300.682 476.728 269.094 483.88 233.334 483.88C202.342 483.88 176.714 479.41 156.45 470.47C136.782 461.53 121.286 447.822 109.962 429.346C114.134 441.266 117.114 452.888 118.902 464.212C121.286 475.536 122.776 488.648 123.372 503.548C124.564 518.448 125.16 537.52 125.16 560.764V612.616C125.16 659.104 105.194 682.348 65.262 682.348ZM210.09 379.282C235.122 379.282 254.492 370.64 268.2 353.356C282.504 335.476 289.656 302.1 289.656 253.228C289.656 204.356 282.504 171.278 268.2 153.994C254.492 136.114 235.122 127.174 210.09 127.174C185.058 127.174 165.39 136.114 151.086 153.994C137.378 171.278 130.524 204.356 130.524 253.228C130.524 302.1 137.378 335.476 151.086 353.356C165.39 370.64 185.058 379.282 210.09 379.282Z" fill="#0F4F7C"/>
</svg>
