<svg width="141" height="86" viewBox="0 0 141 86" fill="none" xmlns="http://www.w3.org/2000/svg">
<path d="M64.5305 0.295802C49.8275 1.84596 34.3044 9.19484 19.2673 21.6535C13.3435 26.591 4.41241 35.6623 1.07082 40.1692C-0.356942 42.1213 -0.356942 43.9585 1.07082 45.9105C5.74904 52.226 15.9561 62.0723 24.7961 68.7897C34.9423 76.5117 48.6732 82.9994 58.9106 84.9228C78.6259 88.6546 98.0374 82.7124 118.512 66.7515C124.892 61.7566 135.828 50.9342 139.534 45.9105C140.354 44.7623 140.536 44.2743 140.536 43.0399C140.536 41.8055 140.354 41.3175 139.534 40.1692C137.59 37.5569 133.033 32.562 128.932 28.6005C107.789 8.04658 85.1572 -1.8859 64.5305 0.295802ZM78.9297 10.0273C92.4783 12.5535 106.726 20.6488 120.548 33.739C123.069 36.0929 126.137 39.1645 127.383 40.5424L129.631 43.0399L127.99 44.8484C114.168 60.0055 98.2197 70.914 84.0332 74.8755C78.8082 76.3108 75.7704 76.7414 70.3023 76.7414C64.5609 76.7414 60.7332 76.1673 55.2956 74.4736C40.9875 69.9954 26.1023 59.661 12.6145 44.8484L10.9741 43.0399L13.222 40.5424C16.6547 36.7244 24.1581 29.7487 28.3807 26.4475C41.4736 16.2567 53.3818 10.8311 66.0494 9.33837C68.5404 9.05131 75.74 9.42449 78.9297 10.0273Z" fill="#626262"/>
<path d="M65.29 18.8115C49.9491 22.0266 41.5343 37.643 47.9745 50.9629C51.2857 57.8237 58.0904 62.9622 65.5634 64.254C67.9025 64.6559 72.7022 64.6559 75.0413 64.254C82.5447 62.9622 89.2582 57.8524 92.6605 50.9054C94.2402 47.719 94.7263 45.4512 94.6959 41.3175C94.6959 38.2746 94.5744 37.3272 93.8757 35.1455C93.0251 32.4758 91.3847 29.3468 90.2607 28.1698C87.4355 25.2705 82.3928 26.8493 81.9371 30.7534C81.7852 31.8443 81.9675 32.4184 83.1826 34.7436C84.7926 37.844 85.3394 40.1118 85.066 42.638C84.5192 47.8051 81.4207 51.9102 76.3779 54.2067C74.13 55.2114 74.0388 55.2401 70.3023 55.2401C66.5658 55.2401 66.4747 55.2114 64.2267 54.2067C56.2677 50.5897 53.2299 42.1499 57.3309 34.8872C59.7004 30.6673 65.0166 27.567 69.9378 27.5383C71.5174 27.5096 73.4313 26.6197 74.2818 25.5001C74.859 24.7538 75.0109 24.1509 75.0109 22.8878C75.0109 21.1367 74.4945 20.1894 72.9148 19.0986C71.8212 18.3235 68.267 18.18 65.29 18.8115Z" fill="#626262"/>
</svg>
