<svg width="498" height="554" viewBox="0 0 498 554" fill="none" xmlns="http://www.w3.org/2000/svg">
<path d="M226.669 1.61774C196.002 7.48441 172.402 20.0177 152.136 41.3511C134.936 59.2177 124.136 78.1511 118.002 101.084C115.336 110.818 114.936 115.484 114.936 135.084C114.936 160.018 116.536 168.284 124.802 188.151C133.602 209.218 153.469 233.484 172.669 246.418C212.536 273.218 262.669 277.218 305.602 257.218C320.936 250.018 331.869 242.284 344.269 229.884C361.736 212.418 372.936 192.818 379.736 168.018C383.602 154.018 384.002 117.084 380.402 103.751C368.802 61.4844 342.402 29.3511 305.069 12.1511C282.669 1.75107 249.336 -2.64893 226.669 1.61774Z" fill="#BCBCBC"/>
<path d="M135.336 315.084C105.736 320.551 77.3358 334.284 55.7358 353.618C23.7358 382.284 5.33576 418.151 0.802429 461.084C-1.46424 482.418 0.935762 496.551 9.73576 513.351C18.5358 530.284 36.4024 544.951 54.8024 550.818L64.1358 553.751H248.802H433.469L443.336 550.551C473.202 540.818 493.736 514.684 497.469 482.151C498.536 472.018 496.136 449.884 492.002 434.418C479.202 385.618 442.136 343.484 396.002 324.951C390.402 322.684 380.002 319.218 372.936 317.351L360.136 313.751L252.802 313.484C166.002 313.351 143.602 313.618 135.336 315.084Z" fill="#BCBCBC"/>
</svg>
