<svg width="722" height="699" viewBox="0 0 722 699" fill="none" xmlns="http://www.w3.org/2000/svg">
<path d="M578.4 151.378C564.933 153.778 551.2 162.044 543.467 172.578C540.933 175.911 498 266.578 447.867 374.044L356.667 569.378L355.867 620.711C355.333 648.978 354.933 672.178 354.8 672.311C354.8 672.444 325.867 672.844 290.533 672.978L226.4 673.378L223.2 677.111C218.8 682.178 218.8 689.911 223.2 694.978L226.4 698.711H375.333H524.267L527.467 694.978C531.867 689.911 531.867 682.178 527.467 677.111L524.267 673.378L458.4 672.711L392.667 672.044L424.667 644.444L456.8 616.844L548.267 420.311C602.8 303.511 640.533 220.978 641.467 216.711C644.667 202.044 640.533 184.978 630.8 172.178C619.2 156.844 597.333 148.178 578.4 151.378ZM573.733 237.644C587.467 244.044 598.4 249.911 598.133 250.711C593.6 260.978 435.6 598.978 434.933 599.511C434.4 600.044 422.533 594.978 408.4 588.444C386.933 578.311 382.933 576.044 383.867 574.178C384.533 572.978 420.267 496.444 463.333 404.044C548.267 221.778 546.267 226.044 547.733 226.044C548.267 226.044 559.867 231.244 573.733 237.644Z" fill="#C0E5FF"/>
<circle cx="663" cy="59" r="59" fill="#C0E5FF"/>
<path d="M65.262 682.348C21.754 682.348 0 659.104 0 612.616V260.38C0 179.324 17.88 118.83 53.64 78.898C89.4 38.966 139.464 19 203.832 19C269.392 19 320.946 39.86 358.494 81.58C396.638 123.3 415.71 184.39 415.71 264.85C415.71 318.49 407.962 361.402 392.466 393.586C376.97 425.174 355.514 448.12 328.098 462.424C300.682 476.728 269.094 483.88 233.334 483.88C202.342 483.88 176.714 479.41 156.45 470.47C136.782 461.53 121.286 447.822 109.962 429.346C114.134 441.266 117.114 452.888 118.902 464.212C121.286 475.536 122.776 488.648 123.372 503.548C124.564 518.448 125.16 537.52 125.16 560.764V612.616C125.16 659.104 105.194 682.348 65.262 682.348ZM210.09 379.282C235.122 379.282 254.492 370.64 268.2 353.356C282.504 335.476 289.656 302.1 289.656 253.228C289.656 204.356 282.504 171.278 268.2 153.994C254.492 136.114 235.122 127.174 210.09 127.174C185.058 127.174 165.39 136.114 151.086 153.994C137.378 171.278 130.524 204.356 130.524 253.228C130.524 302.1 137.378 335.476 151.086 353.356C165.39 370.64 185.058 379.282 210.09 379.282Z" fill="#C0E5FF"/>
</svg>
